<svg xmlns="http://www.w3.org/2000/svg" viewBox="0 0 64 64" width="64" height="64"><defs><radialGradient id="g" cx="0" cy="0" r="1" gradientUnits="userSpaceOnUse" gradientTransform="translate(32.68 31.66) rotate(-90) scale(29.18 17)"><stop stop-color="#F27D8D"/><stop offset="1" stop-color="#9A1D51"/></radialGradient></defs><rect width="64" height="64" rx="12" fill="#0a0509"/><path fill="url(#g)" d="M23.929 2.55511C22.7805 2.76057 21.8058 3.23471 21.0577 3.94593C20.4782 4.49384 20.2464 4.96272 20.0989 5.87413C19.9672 6.70652 19.9672 6.70652 18.7555 7.59686C17.2119 8.73481 16.1477 10.0993 15.8 11.4058C15.6525 11.9537 15.6419 12.881 15.7736 13.3814C16.1319 14.7354 16.901 15.3834 18.7028 15.8575C20.062 16.2158 20.5994 16.5424 20.8944 17.1904C21.0261 17.4802 21.0419 17.575 21.0419 18.0175C21.0367 18.4443 20.9945 18.6866 20.7364 19.7034C20.3781 21.11 20.3202 21.6948 20.4571 22.601C20.5941 23.5229 20.6047 23.7231 20.5467 24.1024C20.4466 24.7136 20.2359 25.2667 19.6406 26.4363C18.9978 27.7112 18.961 27.8482 19.2244 28.1432C19.5299 28.4856 19.9935 28.3171 20.3729 27.7217C20.8733 26.9368 21.0209 26.7313 21.121 26.6365C21.2316 26.5364 21.2316 26.5364 21.2369 26.6892C21.2421 26.7735 21.2421 27.1949 21.2369 27.6322C21.221 29.0019 21.3738 29.5815 22.1799 31.2146C22.9543 32.7898 23.0597 33.1797 23.007 34.3756C22.9649 35.2765 22.849 35.798 22.3116 37.5366C21.8638 38.9695 21.7163 39.6913 21.5477 41.198C21.4107 42.4255 21.2737 43.1104 21.0472 43.6636C20.6521 44.633 19.7512 45.7235 18.6659 46.5348C18.3709 46.7561 18.0706 47.0195 17.9969 47.1143C17.6333 47.5937 17.8546 48.0995 18.4289 48.0995C18.7133 48.0995 19.1243 47.873 19.7933 47.3514C20.6837 46.656 21.2579 45.9975 22.064 44.7699C22.2273 44.5171 22.3853 44.3116 22.4064 44.3116C22.4644 44.3063 22.4433 44.4591 22.2062 45.7024C21.985 46.8931 22.006 48.0152 22.2852 49.7011C22.6382 51.8347 22.6856 53.3256 22.4486 54.8956C22.3853 55.3065 22.3379 55.886 22.3379 56.2654C22.3327 56.7237 22.3063 56.9871 22.2536 57.1346C22.0429 57.6773 22.0113 57.8406 22.0745 58.0302C22.1535 58.2726 22.3063 58.3727 22.5908 58.3727C22.9859 58.3727 23.3389 58.0935 23.5549 57.6088C23.6603 57.3822 23.6813 57.2189 23.713 56.3971C23.734 55.8334 23.7972 55.159 23.871 54.7375C23.9606 54.1791 23.9869 53.8103 23.9922 52.999C23.9922 51.8611 23.929 51.2341 23.6234 49.4693C23.2388 47.2776 23.3231 46.0817 23.9658 44.4644C24.6191 42.8365 25.2882 41.9672 27.2849 40.1444C28.2121 39.2962 28.9075 38.3953 29.408 37.3785C29.8452 36.4987 30.0138 35.8086 30.0612 34.7233C30.077 34.3282 30.0981 33.9541 30.1139 33.8909C30.1455 33.7329 30.3615 33.6275 30.783 33.559C32.0052 33.3641 32.7955 32.8847 33.8491 31.6993C34.0493 31.478 34.2074 31.3463 34.2759 31.3463C34.3391 31.3463 34.5709 31.478 34.7922 31.6414C35.477 32.1418 36.1725 32.3578 37.0891 32.3578C38.0849 32.3631 38.5959 32.2314 39.4125 31.7625C39.6653 31.6203 39.9077 31.5044 39.9604 31.5044C40.1448 31.5044 40.0025 31.9996 39.4862 33.2166C38.3588 35.8718 38.1586 36.5567 38.1059 37.8843C38.0585 39.1276 38.206 39.9758 38.7487 41.5668C39.5863 44.0376 39.8919 45.8025 39.776 47.4989C39.6759 48.8897 39.4441 49.6484 38.5274 51.5502C37.4843 53.7102 37.2735 54.2687 37.1418 55.1748C36.9785 56.2917 37.4369 57.2347 38.401 57.7615C38.5537 57.8406 39.0384 57.9986 39.4915 58.1145C39.9393 58.2252 40.4556 58.3885 40.6347 58.4728C40.8138 58.5623 41.2827 58.8679 41.6726 59.1629C42.5418 59.8056 43.1635 60.127 43.8062 60.2693C44.2013 60.3535 44.4911 60.3746 45.5237 60.3746C46.8882 60.3746 47.2675 60.422 48.2052 60.6907C48.8164 60.8646 49.1851 60.8909 49.417 60.7697C49.6119 60.6696 49.6804 60.5432 49.6804 60.2851C49.6804 59.774 49.2273 59.4948 47.847 59.1366C47.12 58.9469 46.63 58.9048 45.8082 58.9627C44.2277 59.0734 43.4796 58.8574 42.3785 57.9881C41.3775 57.1978 40.9455 56.9766 39.8813 56.7079C39.4546 56.5973 39.0911 56.4761 38.9699 56.3918C38.5801 56.1336 38.4642 55.5805 38.6644 54.8956C38.8119 54.3793 38.9963 53.9368 39.6443 52.5512C40.8665 49.9487 41.1721 48.758 41.1668 46.6244C41.1615 44.849 40.9719 43.8006 40.2238 41.5194C39.718 39.9653 39.5969 39.5069 39.5126 38.7641C39.3914 37.7157 39.6285 36.5777 40.3344 34.8497C41.0878 33.0164 41.5672 31.536 41.8306 30.24C41.957 29.6131 41.9412 29.3813 41.7516 28.9598C41.6357 28.7016 41.6251 28.6279 41.6304 27.8166C41.6357 26.8736 41.583 26.5311 41.3249 25.8146C40.9982 24.9032 40.5451 24.1762 40.1922 23.9918C39.8919 23.839 39.5652 23.9338 39.4335 24.2183C39.3176 24.4607 39.365 24.703 39.6285 25.2456C40.2607 26.5575 40.4292 27.4109 40.2238 28.2802C40.013 29.1653 39.4177 30.0661 38.7223 30.535C38.2376 30.8669 37.9321 30.9459 37.1155 30.9459C36.3832 30.9512 36.3727 30.9512 36.0197 30.7774C35.5982 30.5666 35.4244 30.3612 35.2136 29.8027C35.0187 29.2917 34.8765 29.1073 34.5867 28.9967C34.0915 28.8123 33.7069 29.081 33.3803 29.8501C32.9693 30.809 32.2792 31.6361 31.5996 31.9733C31.1307 32.2103 30.5828 32.3157 30.0086 32.2788C28.565 32.1893 27.4376 31.3779 26.4261 29.7026C26.11 29.1811 25.8677 28.9756 25.5674 28.9756C25.3303 28.9756 25.2302 29.0441 25.0985 29.3075C24.8509 29.7816 25.3935 30.9881 26.2786 31.9311C26.8423 32.5317 27.2374 32.8267 27.9223 33.1481C28.2279 33.2903 28.5282 33.4378 28.5967 33.4695C28.8443 33.5906 28.8601 33.7065 28.7705 34.697C28.6599 35.8033 28.3859 36.5356 27.6747 37.6156C27.327 38.1372 27.0741 38.4216 25.8835 39.6175C25.1196 40.3867 24.3451 41.2138 24.166 41.4615C23.8815 41.8408 23.1861 42.9208 22.9912 43.279C22.7489 43.7268 22.5855 43.9902 22.5434 43.9902C22.4854 43.9902 22.4854 43.9797 22.5487 43.5951C22.5803 43.4213 22.6277 43.1104 22.654 42.9102C22.6751 42.7048 22.7594 42.0568 22.8384 41.4615C23.0491 39.7861 23.2019 39.1065 23.7867 37.1941C24.3662 35.2976 24.519 33.8277 24.2661 32.6371C24.1291 31.9891 23.9764 31.6045 23.4443 30.5297C22.6909 29.0019 22.633 28.8176 22.6277 27.8429C22.6277 27.158 22.6435 27 22.7489 26.6576C23.1387 25.4248 23.8183 24.5608 25.2829 23.4492C26.9371 22.1848 27.4429 21.521 27.4482 20.599C27.4482 20.0722 27.406 19.9299 26.9161 18.8974C26.4893 18.0017 26.4261 17.7436 26.5947 17.654C26.6421 17.6277 26.9266 17.6172 27.2216 17.633C27.8854 17.6646 28.3859 17.5855 28.997 17.3537C29.5555 17.1377 29.7346 17.1272 29.8505 17.3011C29.8927 17.3748 30.0454 17.8279 30.1877 18.3178C30.509 19.4347 30.6566 19.8351 30.8778 20.2092C31.3204 20.9467 32.0948 21.3102 32.943 21.1785C33.7069 21.0626 34.376 20.7676 36.104 19.7719C38.4168 18.4443 39.7128 17.9807 40.9613 18.0281C41.3881 18.0439 41.5461 18.0755 41.7885 18.1861C42.8579 18.6814 43.4954 20.4989 43.6745 23.5756C43.743 24.761 43.7009 26.1255 43.5428 28.1854C43.3268 30.9091 43.2952 31.5676 43.2899 33.7434C43.2794 36.0562 43.311 36.5093 43.5955 38.5007C43.8589 40.3498 43.901 40.8556 43.901 41.9883C43.8958 43.0261 43.8378 43.6531 43.4901 46.2293C43.2267 48.2154 43.2004 49.4166 43.3848 50.8864C43.5323 52.0138 43.6218 52.3089 43.9116 52.5775C44.017 52.6776 44.1065 52.7093 44.2909 52.7093C44.4911 52.7093 44.549 52.6829 44.6755 52.5407C44.902 52.2878 44.9178 52.0296 44.7756 50.9813C44.5807 49.5483 44.6017 48.2734 44.8493 46.4136C45.1918 43.8058 45.2234 43.4213 45.2234 42.041C45.2234 40.9135 45.2023 40.5711 45.0548 39.3541C44.7809 37.1362 44.7229 36.4092 44.686 35.0341C44.6228 32.8425 44.7018 30.5297 44.9442 27.079C45.1707 23.8917 44.9969 21.5895 44.3857 19.7245C43.4954 17.0113 41.6831 16.1104 38.854 16.9797C37.7108 17.3327 36.889 17.7225 35.0556 18.7867C33.5752 19.6402 33.1432 19.8298 32.6532 19.8298C32.0527 19.8351 31.8841 19.6244 31.3941 18.2494C31.2203 17.7594 30.9937 17.1377 30.8884 16.8638C30.646 16.2316 30.6513 16.063 30.9147 15.4572C31.3414 14.4878 31.5048 13.7134 31.5048 12.6439C31.5048 11.3795 31.3046 10.2257 30.9094 9.20369C30.409 7.91823 30.43 7.85501 31.1939 8.26067C31.4837 8.41345 31.9684 8.63472 32.2792 8.75062C32.9588 9.00877 33.0852 9.07198 33.3223 9.28271C33.5699 9.49871 33.6753 9.70945 33.9914 10.6367C34.1336 11.0581 34.3391 11.5692 34.4445 11.7694C34.6973 12.2435 35.103 12.6597 35.4929 12.8441C35.7773 12.9758 35.8458 12.9863 36.457 12.9811C37.0733 12.9758 37.1576 12.9653 37.7213 12.7756C38.7065 12.4542 39.2755 12.3278 39.776 12.3278C40.64 12.3278 41.3775 12.6228 42.4839 13.4025C42.8737 13.6765 43.232 13.7239 43.4322 13.5237C43.5428 13.4131 43.5691 13.334 43.5691 13.1338C43.5639 12.9969 43.5323 12.823 43.4954 12.7598C43.2794 12.3647 42.5892 11.8694 41.662 11.4322C40.9666 11.1108 40.6452 11.0423 39.855 11.0476C39.1122 11.0529 38.8488 11.1055 37.6423 11.4638C37.0891 11.6324 36.8731 11.6693 36.5254 11.6693C36.1725 11.6693 36.0671 11.6482 35.9459 11.5586C35.7141 11.39 35.4665 10.9317 35.2927 10.3522C34.9291 9.15628 34.75 8.7875 34.318 8.36076C34.0125 8.06047 33.6331 7.86028 32.8692 7.59686C32.5321 7.48096 32.1317 7.32291 31.9789 7.24389C31.4363 6.96994 31.0464 6.50632 30.5828 5.58964C29.9453 4.31472 29.5555 3.93013 28.7494 3.79316C28.054 3.67199 27.622 3.86164 26.7633 4.66242C26.0731 5.31042 25.873 5.42106 25.0827 5.57911C24.7877 5.63706 24.461 5.73189 24.3451 5.78984C24.0396 5.94789 23.7446 6.31667 23.576 6.75394C23.0017 8.24486 22.1641 9.47237 21.3106 10.0888C21.1104 10.231 20.847 10.4523 20.7206 10.5682C20.3992 10.879 20.4045 11.0529 20.789 11.8747C21.2579 12.881 21.8374 13.8134 22.4644 14.5932C22.7857 14.9935 23.8078 16.0367 24.4452 16.6214C24.7877 16.9323 24.793 16.9428 24.9668 17.5171C25.0669 17.8332 25.3409 18.5602 25.5832 19.1344C25.8255 19.7034 26.0415 20.2776 26.0573 20.4094C26.1258 20.9046 25.815 21.2944 24.6296 22.2058C23.5128 23.0593 23.223 23.3438 22.2852 24.4817C21.8743 24.9822 21.8427 24.9506 21.8849 24.1498C21.9112 23.6283 21.8954 23.3016 21.8111 22.6115C21.6741 21.5473 21.7005 21.2839 22.0482 19.9299C22.4802 18.2599 22.4854 17.5013 22.0692 16.6425C21.9059 16.3054 21.769 16.121 21.4529 15.8049C20.8628 15.2201 20.4361 15.0146 18.8767 14.5721C17.7018 14.2349 17.2751 13.9135 17.0591 13.2076C16.8484 12.5069 16.9959 11.6587 17.4753 10.8C17.8072 10.2152 18.6712 9.34067 19.6827 8.57676C20.9576 7.60213 21.2158 7.24916 21.3633 6.25345C21.4634 5.61072 21.6162 5.25774 21.9428 4.90477C22.575 4.23042 23.5707 3.86164 25.1407 3.7194C25.8677 3.65091 25.9941 3.62984 26.2101 3.49813C26.3471 3.41911 26.4683 3.32428 26.4841 3.28213C26.5262 3.1715 26.2259 2.78691 26.0152 2.67628C25.6253 2.47081 24.6876 2.41813 23.929 2.55511Z"/></svg>
